<mxfile host="app.diagrams.net" modified="2024-03-12T10:49:13.353Z" agent="Mozilla/5.0 (Windows NT 10.0; Win64; x64) AppleWebKit/537.36 (KHTML, like Gecko) Chrome/122.0.0.0 Safari/537.36 Edg/122.0.0.0" etag="6X9HJAKejI7BvHUgZYsz" version="24.0.5" type="device">
  <diagram name="Seite-1" id="r4wHWf4LqivN3CQFZS1a">
    <mxGraphModel dx="2555" dy="1586" grid="1" gridSize="10" guides="1" tooltips="1" connect="1" arrows="1" fold="1" page="1" pageScale="1" pageWidth="1169" pageHeight="827" math="0" shadow="0">
      <root>
        <mxCell id="0" />
        <mxCell id="1" parent="0" />
        <mxCell id="tcRZOluestf5_phuFeX2-1" value=":User" style="shape=umlActor;verticalLabelPosition=bottom;verticalAlign=top;html=1;outlineConnect=0;" parent="1" vertex="1">
          <mxGeometry x="70" y="30" width="30" height="60" as="geometry" />
        </mxCell>
        <mxCell id="tcRZOluestf5_phuFeX2-2" value=":Dashboard" style="rounded=0;whiteSpace=wrap;html=1;" parent="1" vertex="1">
          <mxGeometry x="170" y="40" width="120" height="60" as="geometry" />
        </mxCell>
        <mxCell id="tcRZOluestf5_phuFeX2-11" value=":Database" style="rounded=0;whiteSpace=wrap;html=1;" parent="1" vertex="1">
          <mxGeometry x="350" y="40" width="120" height="60" as="geometry" />
        </mxCell>
        <mxCell id="tcRZOluestf5_phuFeX2-13" value="" style="endArrow=none;dashed=1;html=1;dashPattern=1 3;strokeWidth=2;rounded=0;" parent="1" edge="1">
          <mxGeometry width="50" height="50" relative="1" as="geometry">
            <mxPoint x="413.62962962962956" y="150" as="sourcePoint" />
            <mxPoint x="413.5" y="94" as="targetPoint" />
          </mxGeometry>
        </mxCell>
        <mxCell id="tcRZOluestf5_phuFeX2-16" value="" style="endArrow=none;dashed=1;html=1;dashPattern=1 3;strokeWidth=2;rounded=0;" parent="1" edge="1">
          <mxGeometry width="50" height="50" relative="1" as="geometry">
            <mxPoint x="410" y="380" as="sourcePoint" />
            <mxPoint x="409.5" y="94" as="targetPoint" />
          </mxGeometry>
        </mxCell>
        <mxCell id="tcRZOluestf5_phuFeX2-18" value="" style="endArrow=none;dashed=1;html=1;dashPattern=1 3;strokeWidth=2;rounded=0;" parent="1" target="tcRZOluestf5_phuFeX2-17" edge="1">
          <mxGeometry width="50" height="50" relative="1" as="geometry">
            <mxPoint x="85" y="380" as="sourcePoint" />
            <mxPoint x="54.64" y="110" as="targetPoint" />
          </mxGeometry>
        </mxCell>
        <mxCell id="tcRZOluestf5_phuFeX2-23" style="edgeStyle=orthogonalEdgeStyle;rounded=0;orthogonalLoop=1;jettySize=auto;html=1;exitX=1.117;exitY=0.164;exitDx=0;exitDy=0;endArrow=classic;endFill=1;exitPerimeter=0;entryX=-0.05;entryY=0.09;entryDx=0;entryDy=0;entryPerimeter=0;" parent="1" source="tcRZOluestf5_phuFeX2-17" target="tcRZOluestf5_phuFeX2-21" edge="1">
          <mxGeometry relative="1" as="geometry">
            <mxPoint x="220" y="140" as="targetPoint" />
            <Array as="points">
              <mxPoint x="225" y="148" />
            </Array>
          </mxGeometry>
        </mxCell>
        <mxCell id="tcRZOluestf5_phuFeX2-17" value="" style="rounded=0;whiteSpace=wrap;html=1;" parent="1" vertex="1">
          <mxGeometry x="80" y="110" width="10" height="230" as="geometry" />
        </mxCell>
        <mxCell id="tcRZOluestf5_phuFeX2-19" value="&lt;div&gt;&lt;br&gt;&lt;/div&gt;&lt;div&gt;&lt;br&gt;&lt;/div&gt;" style="text;html=1;align=center;verticalAlign=middle;resizable=0;points=[];autosize=1;strokeColor=none;fillColor=none;" parent="1" vertex="1">
          <mxGeometry x="70" y="-5" width="20" height="40" as="geometry" />
        </mxCell>
        <mxCell id="tcRZOluestf5_phuFeX2-21" value="" style="rounded=0;whiteSpace=wrap;html=1;" parent="1" vertex="1">
          <mxGeometry x="225" y="102" width="10" height="238" as="geometry" />
        </mxCell>
        <mxCell id="tcRZOluestf5_phuFeX2-24" value="klickt auf füttern" style="text;html=1;align=center;verticalAlign=middle;resizable=0;points=[];autosize=1;strokeColor=none;fillColor=none;" parent="1" vertex="1">
          <mxGeometry x="100" y="110" width="110" height="30" as="geometry" />
        </mxCell>
        <mxCell id="tcRZOluestf5_phuFeX2-27" style="edgeStyle=orthogonalEdgeStyle;rounded=0;orthogonalLoop=1;jettySize=auto;html=1;endArrow=classic;endFill=1;" parent="1" edge="1">
          <mxGeometry relative="1" as="geometry">
            <mxPoint x="235" y="244.5" as="sourcePoint" />
            <mxPoint x="405" y="244.5" as="targetPoint" />
          </mxGeometry>
        </mxCell>
        <mxCell id="tcRZOluestf5_phuFeX2-46" value="" style="rounded=0;whiteSpace=wrap;html=1;" parent="1" vertex="1">
          <mxGeometry x="405" y="102" width="10" height="238" as="geometry" />
        </mxCell>
        <mxCell id="tcRZOluestf5_phuFeX2-73" value="" style="endArrow=none;dashed=1;html=1;dashPattern=1 3;strokeWidth=2;rounded=0;entryX=0.5;entryY=1;entryDx=0;entryDy=0;" parent="1" edge="1">
          <mxGeometry width="50" height="50" relative="1" as="geometry">
            <mxPoint x="414" y="510" as="sourcePoint" />
            <mxPoint x="414" y="510" as="targetPoint" />
          </mxGeometry>
        </mxCell>
        <mxCell id="tcRZOluestf5_phuFeX2-77" value="&lt;span style=&quot;text-wrap: nowrap;&quot;&gt;sd: Fütterung eintragen&lt;/span&gt;" style="shape=umlFrame;whiteSpace=wrap;html=1;pointerEvents=0;width=150;height=30;" parent="1" vertex="1">
          <mxGeometry x="-1" y="-10" width="921" height="830" as="geometry" />
        </mxCell>
        <mxCell id="xfAKs0bYFiutVAKzQWYH-2" value="&lt;div style=&quot;text-align: justify;&quot;&gt;&lt;span style=&quot;background-color: initial;&quot;&gt;setFuetterungId&lt;/span&gt;&lt;/div&gt;&lt;div style=&quot;text-align: justify;&quot;&gt;&lt;span style=&quot;background-color: initial;&quot;&gt;setFuetterer()&lt;/span&gt;&lt;/div&gt;&lt;div style=&quot;text-align: justify;&quot;&gt;&lt;span style=&quot;background-color: initial;&quot;&gt;setFutterMenge()&lt;/span&gt;&lt;/div&gt;&lt;div style=&quot;text-align: justify;&quot;&gt;&lt;span style=&quot;background-color: initial;&quot;&gt;setDatum()&lt;/span&gt;&lt;/div&gt;&lt;div style=&quot;text-align: justify;&quot;&gt;setUhrzeit()&lt;/div&gt;&lt;div style=&quot;text-align: justify;&quot;&gt;setPetId()&lt;/div&gt;" style="text;html=1;align=center;verticalAlign=middle;resizable=0;points=[];autosize=1;strokeColor=none;fillColor=none;" parent="1" vertex="1">
          <mxGeometry x="235" y="110" width="120" height="100" as="geometry" />
        </mxCell>
        <mxCell id="xfAKs0bYFiutVAKzQWYH-3" value="setFeed()" style="text;html=1;align=center;verticalAlign=middle;resizable=0;points=[];autosize=1;strokeColor=none;fillColor=none;" parent="1" vertex="1">
          <mxGeometry x="245" y="220" width="70" height="30" as="geometry" />
        </mxCell>
        <mxCell id="xfAKs0bYFiutVAKzQWYH-4" style="edgeStyle=orthogonalEdgeStyle;rounded=0;orthogonalLoop=1;jettySize=auto;html=1;exitX=0;exitY=0.75;exitDx=0;exitDy=0;entryX=1.033;entryY=0.899;entryDx=0;entryDy=0;entryPerimeter=0;dashed=1;endArrow=open;endFill=0;" parent="1" edge="1">
          <mxGeometry relative="1" as="geometry">
            <mxPoint x="394.66999999999996" y="280.17" as="sourcePoint" />
            <mxPoint x="234.9999999999999" y="279.99999999999994" as="targetPoint" />
          </mxGeometry>
        </mxCell>
        <mxCell id="xfAKs0bYFiutVAKzQWYH-5" value="getFeed()" style="text;html=1;align=center;verticalAlign=middle;resizable=0;points=[];autosize=1;strokeColor=none;fillColor=none;" parent="1" vertex="1">
          <mxGeometry x="235" y="260" width="80" height="30" as="geometry" />
        </mxCell>
        <mxCell id="xfAKs0bYFiutVAKzQWYH-9" value="" style="endArrow=none;dashed=1;html=1;dashPattern=1 3;strokeWidth=2;rounded=0;" parent="1" edge="1">
          <mxGeometry width="50" height="50" relative="1" as="geometry">
            <mxPoint x="230" y="380" as="sourcePoint" />
            <mxPoint x="229.5" y="334" as="targetPoint" />
          </mxGeometry>
        </mxCell>
      </root>
    </mxGraphModel>
  </diagram>
</mxfile>
